<svg xmlns="http://www.w3.org/2000/svg" viewBox="0 0 1024 1024"><path d="M512 364.2c-51.9 0-94-42.1-94-94s42.1-94 94-94 94 42.1 94 94c-.1 51.9-42.1 94-94 94zm0-128c-18.8 0-34 15.2-34 34s15.2 34 34 34 34-15.2 34-34-15.2-34-34-34z" fill="#226db4"/><path d="M309.4 1023.5c-15.8 0-31.3-4.1-45-12l-213-123c-27.8-16.1-45-45.8-45-77.9v-246c0-32.1 17.2-61.8 45-78L224.1 387c14.4-8.3 32.7-3.4 41 11s3.4 32.7-11 41L81.4 538.6c-9.3 5.4-15 15.3-15 26v245.9c0 10.7 5.7 20.6 15 26l213 123a30.29 30.29 0 0 0 30 0L497 859.8c14.4-8.3 32.7-3.4 41 11s3.4 32.7-11 41h0l-172.6 99.6c-13.7 8-29.2 12.1-45 12.1z" fill="#e42527"/><path d="M714.6 1023.5c-15.8 0-31.3-4.1-45-12l-172.8-99.8c-14.4-8.3-19.3-26.6-11-41s26.6-19.3 41-11l172.8 99.8a30.29 30.29 0 0 0 30 0l213-123c9.3-5.4 15-15.3 15-26V564.6c0-10.7-5.7-20.6-15-26L770.1 439c-14.4-8.3-19.3-26.6-11-41s26.6-19.3 41-11l172.5 99.6c27.8 16.1 45 45.8 45 78v246c0 32.1-17.2 61.8-45 77.9l-213 123c-13.7 7.8-29.2 12-45 12z" fill="#f9b21d"/><path d="M239.1 443.1c-16.6 0-30-13.4-30-30V213.5c0-32.1 17.2-61.8 45-77.9l213-123c27.9-16 62.1-16 90 0l213 123c27.8 16.1 45 45.8 45 77.9V413c0 16.6-13.4 30-30 30s-30-13.4-30-30V213.5c0-10.7-5.7-20.6-15-26l-213-123a30.29 30.29 0 0 0-30 0l-213 123c-9.3 5.4-15 15.3-15 26v199.6c0 16.5-13.4 30-30 30z" fill="#089949"/><g fill="#226db4"><path d="M441.6 640.9c-5.3 0-10.4-1.4-15-4l-172.5-99.6c-27.8-16.1-45-45.8-45-78V413c0-16.6 13.4-30 30-30s30 13.4 30 30v46.3c0 10.7 5.7 20.6 15 26L456.6 585c14.4 8.3 19.3 26.6 11 41-5.3 9.3-15.3 15-26 14.9h0zm140.8.1c-16.6 0-30-13.4-30-30 0-10.7 5.7-20.7 15-26l172.7-99.7c9.3-5.4 15-15.3 15-26V413c0-16.6 13.4-30 30-30s30 13.4 30 30v46.4c0 32.2-17.2 61.9-45 78L597.4 637c-4.6 2.6-9.7 4-15 4z"/><path d="M512 519.3c-16.6 0-30-13.4-30-30 0-10.7 5.7-20.7 15-26l172.6-99.6c27.9-16 62.1-16 90 0l40.5 23.4c14.4 8.3 19.3 26.6 11 41s-26.6 19.3-41 11l-40.5-23.4a30.29 30.29 0 0 0-30 0L527 515.3c-4.6 2.7-9.7 4-15 4zm-.3 396.4c-5.3 0-10.4-1.4-15-4l-40.1-23.2c-27.8-16.1-44.9-45.8-45-77.9V610.8c0-16.6 13.4-30 30-30s30 13.4 30 30v199.7c0 10.7 5.7 20.6 15 26l40.1 23.2c14.4 8.3 19.3 26.6 11 41-5.3 9.3-15.2 15-26 15h0z"/><path d="M512 915.8c-16.6 0-30-13.4-30-30 0-10.7 5.7-20.7 15-26l40.4-23.3c9.3-5.4 15-15.3 15-26V610.8c0-16.6 13.4-30 30-30s30 13.4 30 30v199.7c0 32.1-17.2 61.8-45 77.9L527 911.8c-4.6 2.6-9.7 4-15 4zm0-396.5c-5.3 0-10.4-1.4-15-4l-172.6-99.7a30.29 30.29 0 0 0-30 0l-40.3 23.3c-14.4 8.3-32.7 3.4-41-11s-3.4-32.7 11-41l40.3-23.3c27.9-16 62.1-16 90 0L527 463.4c14.4 8.3 19.3 26.6 11 41-5.3 9.2-15.3 15-26 14.9h0z"/></g></svg>